<svg xmlns="http://www.w3.org/2000/svg" xmlns:xlink="http://www.w3.org/1999/xlink" width="294" zoomAndPan="magnify" viewBox="0 0 220.5 220.499992" height="294" preserveAspectRatio="xMidYMid meet" version="1.0"><defs><g/><clipPath id="d493fc8a84"><path d="M 0 7 L 211 7 L 211 218.25 L 0 218.25 Z M 0 7 " clip-rule="nonzero"/></clipPath><clipPath id="2519f6ea76"><path d="M 16 6 L 220 6 L 220 187 L 16 187 Z M 16 6 " clip-rule="nonzero"/></clipPath></defs><path fill="#8c52ff" d="M 40.109375 31.324219 L 41.132812 31.324219 L 40.3125 30.914062 Z M 41.132812 31.53125 Z M 42.773438 30.097656 C 42.773438 30.300781 42.773438 30.300781 42.976562 30.300781 L 43.796875 29.6875 C 43.386719 29.480469 43.183594 29.480469 42.773438 30.097656 Z M 43.59375 29.6875 Z M 35.191406 34.394531 Z M 34.78125 35.625 L 35.398438 35.214844 C 35.601562 35.011719 35.601562 34.804688 35.601562 34.804688 L 35.191406 34.804688 L 34.78125 35.625 C 34.578125 35.417969 34.578125 35.625 34.78125 35.625 Z M 39.289062 29.6875 L 39.085938 29.6875 L 38.675781 30.097656 L 39.289062 30.097656 Z M 34.988281 34.601562 L 36.214844 33.578125 C 36.421875 33.371094 36.421875 33.167969 36.421875 32.964844 L 35.808594 32.964844 L 33.347656 35.214844 L 32.9375 36.035156 L 34.371094 34.804688 Z M 32.734375 36.238281 Z M 32.734375 36.238281 " fill-opacity="1" fill-rule="nonzero"/><path fill="#8c52ff" d="M 19.417969 51.183594 L 19.417969 50.773438 C 19.582031 49.824219 20.0625 49.074219 20.851562 48.523438 L 22.695312 47.292969 L 23.71875 46.066406 L 25.972656 43.8125 L 26.792969 43.199219 C 27.542969 42.769531 28.089844 42.152344 28.429688 41.355469 L 29.25 40.332031 C 30.058594 39.542969 30.742188 38.65625 31.300781 37.671875 L 31.710938 37.058594 L 32.324219 36.648438 L 31.914062 36.035156 L 32.734375 35.011719 C 34.371094 33.78125 35.601562 32.144531 37.242188 30.914062 L 37.855469 30.300781 C 38.078125 29.792969 38.417969 29.382812 38.878906 29.074219 L 40.519531 28.253906 L 41.339844 28.253906 C 41.960938 28.011719 42.4375 27.601562 42.773438 27.027344 L 42.773438 26.617188 C 43.390625 25.410156 44.277344 24.453125 45.4375 23.75 L 47.074219 22.726562 L 48.304688 21.496094 L 50.351562 20.472656 L 50.761719 20.472656 L 48.507812 21.292969 L 45.640625 23.339844 C 44.410156 24.363281 42.773438 24.570312 41.953125 26.207031 L 42.566406 26.207031 C 41.132812 26.617188 39.699219 27.230469 39.085938 28.664062 C 38.46875 30.097656 37.445312 29.890625 36.625 30.507812 C 36.441406 30.554688 36.289062 30.65625 36.175781 30.808594 C 36.058594 30.960938 36.003906 31.132812 36.011719 31.324219 C 34.371094 31.121094 33.757812 32.347656 32.9375 33.167969 L 32.9375 34.804688 C 31.574219 35.453125 30.484375 36.40625 29.660156 37.671875 C 26.382812 37.875 26.382812 41.972656 23.515625 42.789062 L 23.308594 42.789062 C 23.230469 42.925781 23.230469 43.0625 23.308594 43.199219 C 22.695312 43.199219 22.285156 43.609375 22.492188 44.222656 L 22.082031 45.246094 C 20.644531 46.066406 20.851562 47.5 20.03125 48.726562 C 18.394531 49.75 17.777344 51.800781 16.550781 53.230469 L 17.164062 54.253906 L 17.574219 53.847656 C 18.128906 52.917969 18.742188 52.03125 19.417969 51.183594 Z M 109.96875 6.757812 L 111.199219 7.164062 L 111.609375 7.164062 C 112.519531 7.625 113.476562 7.761719 114.476562 7.574219 C 115.789062 7.335938 117.089844 7.402344 118.371094 7.78125 L 120.828125 7.78125 C 121.261719 7.6875 121.695312 7.691406 122.128906 7.800781 C 122.5625 7.910156 122.945312 8.105469 123.285156 8.394531 C 123.324219 8.460938 123.324219 8.53125 123.285156 8.597656 L 122.46875 8.597656 C 122.425781 8.667969 122.425781 8.734375 122.46875 8.804688 L 123.902344 8.804688 C 124.789062 8.460938 125.675781 8.460938 126.566406 8.804688 C 126.972656 8.804688 126.769531 9.007812 126.972656 9.214844 L 128 9.621094 L 127.589844 9.621094 C 127.179688 8.804688 126.566406 8.804688 125.949219 8.804688 C 123.15625 7.507812 120.21875 6.894531 117.140625 6.960938 L 115.5 6.960938 C 113.09375 6.226562 110.636719 5.953125 108.125 6.140625 L 108.535156 6.140625 Z M 124.925781 13.101562 Z M 102.59375 9.621094 Z M 124.925781 13.101562 L 125.335938 13.101562 Z M 38.46875 30.097656 Z M 104.234375 9.621094 Z M 140.289062 14.128906 C 140.558594 14.402344 140.878906 14.574219 141.25 14.648438 C 141.625 14.722656 141.988281 14.6875 142.339844 14.535156 L 143.570312 14.535156 C 142.496094 13.65625 141.265625 13.179688 139.882812 13.101562 L 138.445312 12.695312 L 139.472656 13.308594 Z M 133.324219 11.464844 C 133.324219 11.671875 133.53125 11.875 133.734375 12.078125 L 134.144531 12.078125 L 135.167969 11.464844 C 134.097656 10.800781 132.9375 10.390625 131.6875 10.238281 L 133.121094 11.054688 Z M 148.484375 16.992188 L 150.125 18.015625 C 149.714844 17.402344 149.304688 16.992188 148.484375 16.992188 Z M 148.484375 16.992188 " fill-opacity="1" fill-rule="nonzero"/><g clip-path="url(#d493fc8a84)"><path fill="#8c52ff" d="M 202.367188 155.804688 L 203.597656 152.53125 L 204.824219 149.460938 C 205.234375 148.433594 206.054688 145.773438 206.464844 144.136719 C 206.558594 143.609375 206.765625 143.132812 207.078125 142.703125 L 207.285156 142.703125 L 207.285156 140.449219 C 208.308594 140.246094 208.101562 139.222656 208.308594 138.609375 L 209.945312 128.984375 C 211.011719 124.753906 211.011719 120.523438 209.945312 116.292969 C 210.039062 115.695312 209.996094 115.109375 209.816406 114.535156 C 209.636719 113.960938 209.339844 113.453125 208.921875 113.015625 L 208.921875 104.210938 C 208.308594 102.371094 209.539062 100.320312 208.101562 98.683594 L 206.464844 92.132812 C 206.5 91.996094 206.5 91.859375 206.464844 91.722656 L 206.054688 90.496094 C 205.933594 90.222656 205.933594 89.949219 206.054688 89.675781 L 206.257812 89.675781 C 206.875 89.675781 206.875 88.652344 206.875 87.832031 C 206.75 87.027344 206.476562 86.277344 206.054688 85.582031 L 205.441406 84.761719 C 205.136719 84.332031 205 83.855469 205.03125 83.328125 C 205.101562 81.941406 204.964844 80.578125 204.621094 79.234375 L 204.621094 78.003906 C 204.210938 76.570312 203.800781 74.933594 203.390625 73.5 L 202.980469 72.476562 C 202.527344 71.792969 202.253906 71.042969 202.160156 70.226562 C 202.050781 69.644531 201.847656 69.097656 201.546875 68.585938 L 200.316406 66.539062 C 199.96875 66.226562 199.558594 66.089844 199.089844 66.128906 L 198.882812 66.128906 L 198.882812 65.515625 L 198.472656 65.515625 L 198.472656 63.878906 L 198.269531 63.878906 L 198.269531 63.46875 C 198.277344 63.402344 198.277344 63.332031 198.269531 63.265625 L 198.269531 62.855469 C 198.472656 62.445312 198.472656 62.242188 198.0625 61.832031 C 197.707031 61.476562 197.433594 61.066406 197.246094 60.601562 L 196.835938 59.375 C 196.558594 58.4375 196.082031 57.617188 195.402344 56.917969 C 194.964844 56.507812 194.621094 56.03125 194.375 55.484375 L 192.941406 52.207031 C 192.625 51.46875 192.214844 50.789062 191.714844 50.160156 L 190.484375 48.523438 C 190.109375 48.027344 189.835938 47.484375 189.664062 46.886719 L 189.253906 46.269531 C 189.027344 45.960938 188.957031 45.621094 189.050781 45.246094 C 189.050781 44.90625 188.914062 44.632812 188.640625 44.429688 L 187.820312 43.8125 L 187.820312 44.222656 C 188.027344 44.632812 187.820312 44.835938 187.617188 44.835938 L 187.207031 44.835938 L 187.820312 46.886719 L 188.4375 47.910156 L 189.871094 49.75 L 189.664062 49.75 L 189.253906 49.34375 L 188.84375 48.933594 C 188.800781 48.632812 188.703125 48.347656 188.5625 48.082031 C 188.417969 47.816406 188.234375 47.578125 188.011719 47.375 C 187.789062 47.167969 187.539062 47.007812 187.257812 46.886719 C 186.980469 46.769531 186.6875 46.699219 186.386719 46.679688 L 186.386719 45.246094 C 185.773438 42.789062 183.109375 42.585938 181.878906 40.949219 C 181.683594 40.472656 181.382812 40.070312 180.984375 39.742188 C 180.585938 39.417969 180.132812 39.203125 179.625 39.105469 L 177.988281 37.261719 C 176.269531 34.804688 174.152344 32.757812 171.636719 31.121094 L 169.996094 29.890625 L 169.179688 29.277344 C 167.742188 27.84375 167.128906 25.59375 164.671875 25.59375 L 163.03125 24.570312 L 161.1875 23.136719 C 160.859375 22.390625 160.363281 21.78125 159.703125 21.304688 C 159.042969 20.828125 158.308594 20.550781 157.5 20.472656 C 156.144531 19.242188 154.574219 18.421875 152.789062 18.015625 L 153.199219 18.425781 L 154.222656 19.246094 L 156.886719 20.679688 C 158.492188 21.546875 159.925781 22.636719 161.1875 23.953125 C 162.109375 24.847656 163.132812 25.597656 164.261719 26.207031 L 165.488281 27.230469 C 165.695312 27.433594 165.898438 27.640625 165.695312 27.84375 L 165.488281 27.84375 L 163.644531 27.230469 C 162.171875 26.953125 160.808594 26.40625 159.546875 25.59375 L 157.089844 24.363281 L 154.425781 22.929688 L 154.015625 22.929688 C 153.402344 22.726562 153.199219 22.113281 152.378906 21.90625 L 150.738281 21.496094 L 145.617188 20.472656 C 144.894531 20.132812 144.28125 19.65625 143.773438 19.039062 C 143.097656 19.015625 142.484375 18.808594 141.929688 18.425781 L 139.882812 17.609375 C 137.925781 17.214844 136.011719 16.667969 134.144531 15.96875 L 132.914062 15.558594 L 130.867188 14.945312 L 129.84375 14.945312 L 129.433594 14.332031 L 129.433594 14.125 L 126.15625 14.125 L 124.925781 13.101562 L 123.285156 13.921875 L 122.875 13.921875 L 121.03125 12.898438 C 119.804688 14.125 118.78125 12.488281 117.753906 12.695312 L 115.707031 12.078125 C 115.324219 12.300781 114.917969 12.410156 114.476562 12.410156 C 114.039062 12.410156 113.628906 12.300781 113.246094 12.078125 L 110.789062 12.078125 C 110.492188 12.027344 110.242188 11.886719 110.050781 11.65625 C 109.855469 11.421875 109.761719 11.152344 109.765625 10.851562 L 110.378906 10.441406 L 111.609375 10.441406 C 111.726562 10.628906 111.792969 10.835938 111.8125 11.054688 C 111.8125 11.464844 112.222656 11.464844 112.839844 11.464844 L 113.246094 11.464844 L 112.429688 10.238281 C 112.140625 10.003906 111.816406 9.851562 111.453125 9.78125 C 111.09375 9.707031 110.734375 9.722656 110.378906 9.828125 L 108.332031 10.441406 L 108.125 10.441406 C 108.742188 10.851562 108.535156 11.054688 108.535156 11.464844 L 105.257812 11.464844 L 104.4375 11.054688 L 102.800781 10.238281 L 102.59375 10.238281 L 101.160156 9.828125 L 96.449219 9.828125 L 97.269531 9.417969 L 98.90625 9.007812 L 99.523438 9.007812 L 103.003906 8.394531 L 105.257812 7.984375 L 106.488281 7.574219 L 104.234375 7.574219 C 101.910156 7.097656 99.589844 7.097656 97.269531 7.574219 L 94.605469 7.574219 L 87.640625 7.371094 C 84.769531 7.574219 81.902344 7.371094 79.648438 9.828125 C 74.527344 9.007812 70.019531 11.261719 65.511719 13.511719 L 61.007812 15.355469 C 59.582031 15.558594 58.21875 15.972656 56.925781 16.601562 C 55.632812 17.230469 54.464844 18.042969 53.425781 19.039062 L 54.039062 19.039062 L 55.066406 18.425781 L 56.703125 17.402344 L 59.367188 16.175781 L 61.414062 15.765625 C 62.667969 14.898438 64.03125 14.28125 65.511719 13.921875 L 67.355469 13.308594 L 67.765625 13.308594 C 67.972656 13.71875 68.792969 13.308594 69.199219 13.308594 L 69.609375 13.308594 C 69.816406 13.308594 69.816406 13.511719 69.609375 13.511719 L 68.382812 14.332031 L 70.429688 13.71875 L 72.070312 13.308594 L 69.40625 14.742188 L 66.742188 15.558594 C 66.1875 15.726562 65.777344 16.070312 65.511719 16.582031 L 64.898438 17.609375 L 65.511719 17.609375 L 66.332031 17.199219 C 66.777344 16.53125 67.390625 16.121094 68.175781 15.96875 L 71.25 14.945312 L 72.273438 14.945312 C 72.410156 14.878906 72.511719 14.914062 72.582031 15.046875 C 72.648438 15.183594 72.613281 15.285156 72.480469 15.355469 C 72.070312 15.765625 71.25 15.96875 70.839844 16.378906 L 71.25 16.378906 L 64.695312 18.222656 L 56.910156 21.496094 C 55.550781 22.722656 53.976562 23.539062 52.195312 23.953125 C 51.152344 24.886719 49.992188 25.636719 48.714844 26.207031 L 47.074219 26.617188 C 46.84375 27.152344 46.484375 27.585938 46.003906 27.917969 C 45.527344 28.25 44.996094 28.429688 44.410156 28.457031 L 43.796875 29.480469 C 43.148438 30.417969 42.328125 31.167969 41.339844 31.734375 L 41.132812 31.734375 L 41.132812 31.53125 L 40.722656 31.9375 L 40.3125 32.347656 L 38.265625 32.757812 L 37.242188 32.757812 L 36.421875 33.78125 C 36.214844 33.988281 36.214844 34.191406 36.421875 34.191406 L 36.625 34.191406 C 35.398438 35.417969 34.578125 37.058594 32.9375 37.671875 L 30.273438 40.742188 C 29.046875 43.199219 26.585938 44.019531 24.949219 46.066406 C 23.308594 48.113281 22.082031 54.050781 16.957031 54.871094 L 16.550781 54.253906 L 16.140625 55.28125 C 15.957031 55.871094 15.683594 56.417969 15.320312 56.917969 C 14.398438 58.292969 13.578125 59.726562 12.863281 61.21875 C 12.679688 61.535156 12.609375 61.875 12.65625 62.242188 C 12.6875 62.828125 12.550781 63.375 12.246094 63.878906 L 11.222656 66.128906 L 11.632812 66.128906 C 12.246094 66.128906 12.246094 66.746094 12.453125 67.359375 L 14.089844 65.105469 C 14.398438 64.542969 14.808594 64.0625 15.320312 63.671875 C 16.140625 63.265625 16.753906 62.652344 17.164062 61.832031 L 18.597656 60.398438 L 19.828125 58.144531 L 20.238281 58.144531 C 20.441406 58.351562 20.441406 58.351562 20.644531 58.144531 L 21.054688 57.328125 L 22.082031 57.328125 L 22.082031 58.964844 L 23.105469 57.941406 C 23.300781 57.601562 23.300781 57.257812 23.105469 56.917969 C 23.085938 56.683594 23.152344 56.476562 23.308594 56.304688 C 23.582031 56.003906 23.789062 55.660156 23.925781 55.28125 C 24.03125 54.855469 24.226562 54.484375 24.515625 54.15625 C 24.808594 53.832031 25.15625 53.589844 25.5625 53.4375 L 26.179688 53.027344 L 26.792969 52.414062 C 27.527344 51.882812 28.074219 51.199219 28.429688 50.367188 L 28.023438 49.75 C 28.023438 49.546875 28.226562 49.136719 28.429688 48.933594 L 29.457031 48.933594 L 30.683594 47.292969 L 31.914062 46.679688 L 32.324219 46.679688 C 28.109375 51.246094 24.355469 56.15625 21.054688 61.421875 L 20.851562 61.421875 L 21.054688 61.421875 C 16.449219 68.597656 12.832031 76.242188 10.199219 84.351562 L 9.171875 84.351562 L 8.148438 83.535156 C 7.738281 83.125 7.945312 82.101562 7.328125 81.691406 L 7.535156 81.691406 C 8.148438 80.667969 7.328125 79.234375 8.148438 78.210938 C 8.96875 77.1875 8.355469 75.34375 6.304688 75.753906 C 4.257812 76.164062 3.230469 76.777344 3.640625 78.824219 C 4.050781 80.871094 1.59375 82.507812 1.386719 84.761719 C 1.183594 87.015625 0.363281 85.785156 0.773438 86.605469 L 0.773438 94.589844 C 0.980469 96.226562 -0.25 98.273438 2.414062 98.890625 L 5.078125 100.730469 C 5.28125 101.753906 4.050781 104.007812 6.921875 103.394531 C 6.542969 106.792969 6.335938 110.207031 6.304688 113.628906 C 6.304688 115.882812 6.511719 118.132812 6.511719 120.386719 L 6.511719 119.566406 C 6.304688 118.75 6.304688 117.929688 6.101562 116.90625 L 5.484375 117.519531 L 5.484375 117.109375 L 4.460938 117.109375 C 4.460938 118.132812 4.257812 118.75 3.640625 118.953125 C 3.472656 119.273438 3.40625 119.617188 3.4375 119.976562 C 3.4375 120.179688 3.640625 120.589844 3.847656 120.386719 C 4.050781 120.179688 4.667969 120.796875 5.28125 121.207031 C 5.894531 121.613281 4.871094 121.820312 4.460938 121.613281 C 4.050781 121.410156 4.050781 121.820312 4.050781 122.230469 L 4.050781 122.84375 L 5.078125 125.914062 C 5.078125 126.527344 4.871094 127.144531 4.871094 127.757812 C 4.871094 128.335938 5.007812 128.882812 5.28125 129.394531 L 4.667969 129.394531 L 4.667969 128.78125 L 3.230469 128.371094 L 3.230469 127.144531 C 3.289062 126.800781 3.289062 126.460938 3.230469 126.117188 C 2.949219 124.902344 2.746094 123.675781 2.617188 122.433594 C 2.226562 120.058594 2.089844 117.671875 2.207031 115.269531 C 2.175781 114.90625 2.242188 114.566406 2.414062 114.242188 L 2.414062 114.652344 C 2.511719 114.988281 2.578125 115.328125 2.617188 115.675781 C 2.613281 115.96875 2.679688 116.242188 2.824219 116.496094 C 3.027344 116.90625 3.230469 117.316406 3.640625 117.316406 C 4.050781 117.316406 3.847656 117.109375 3.847656 116.90625 C 3.820312 116.554688 3.753906 116.214844 3.640625 115.882812 C 3.292969 115.027344 3.089844 114.140625 3.027344 113.21875 C 2.949219 112.6875 2.742188 112.210938 2.414062 111.789062 C 2.089844 111.214844 1.953125 110.601562 2.003906 109.945312 L 2.003906 108.308594 C 2.003906 107.691406 2.207031 107.078125 2.207031 106.464844 C 2.261719 106.160156 2.195312 105.886719 2.003906 105.644531 L 1.796875 105.644531 C 0.160156 106.464844 0.363281 106.054688 -0.25 108.921875 L -0.25 112.605469 C -0.25 114.039062 -0.457031 115.472656 -0.25 116.90625 C -0.28125 118.488281 -0.144531 120.058594 0.160156 121.613281 C 0.207031 121.957031 0.207031 122.296875 0.160156 122.636719 C 0.136719 123.261719 0.207031 123.875 0.363281 124.480469 C 0.53125 125.359375 0.597656 126.246094 0.570312 127.144531 C 0.445312 128.332031 0.582031 129.492188 0.980469 130.625 C 1.023438 130.894531 1.023438 131.167969 0.980469 131.441406 C 0.941406 132 1.007812 132.546875 1.183594 133.078125 C 1.378906 133.679688 1.515625 134.296875 1.59375 134.921875 C 1.8125 136.453125 2.15625 137.953125 2.617188 139.425781 C 2.824219 140.09375 2.960938 140.777344 3.027344 141.472656 C 3.121094 142 3.328125 142.476562 3.640625 142.90625 C 4.171875 143.648438 4.511719 144.46875 4.667969 145.363281 C 4.828125 146.058594 5.035156 146.742188 5.28125 147.410156 L 6.101562 150.277344 C 6.355469 151.363281 6.765625 152.386719 7.328125 153.347656 C 8.066406 154.710938 8.613281 156.144531 8.96875 157.648438 L 9.378906 158.671875 C 9.910156 159.261719 10.25 159.941406 10.402344 160.71875 C 10.558594 161.324219 10.832031 161.871094 11.222656 162.359375 C 11.453125 162.660156 11.589844 163 11.632812 163.382812 C 11.835938 163.996094 12.042969 164.199219 12.453125 163.996094 L 12.65625 163.996094 L 12.65625 165.839844 L 13.679688 167.886719 L 14.707031 169.933594 L 16.957031 172.390625 L 17.777344 173.207031 C 18.394531 173.824219 19.210938 174.234375 19.621094 175.257812 L 20.441406 175.871094 C 20.804688 176.117188 21.007812 176.460938 21.054688 176.894531 L 21.464844 178.328125 C 21.773438 179.007812 22.183594 179.625 22.695312 180.167969 L 23.515625 180.578125 L 24.128906 180.578125 C 24.253906 180.625 24.339844 180.710938 24.382812 180.835938 C 24.425781 180.964844 24.410156 181.082031 24.335938 181.195312 C 24.300781 181.535156 24.300781 181.875 24.335938 182.21875 C 24.476562 182.664062 24.75 183.003906 25.152344 183.242188 L 25.5625 183.242188 C 26.382812 183.035156 27.203125 183.652344 28.023438 184.675781 L 28.226562 184.675781 C 28.226562 184.46875 28.429688 184.46875 28.226562 184.265625 L 28.226562 183.855469 C 28.226562 183.652344 28.429688 183.445312 28.636719 183.652344 C 29.066406 183.949219 29.269531 184.359375 29.25 184.878906 L 29.25 185.289062 C 29.402344 186.148438 29.675781 186.96875 30.070312 187.746094 C 31.09375 188.359375 31.09375 188.359375 31.09375 187.949219 C 31.09375 187.539062 31.09375 187.539062 31.503906 187.539062 L 32.324219 187.539062 L 32.734375 188.15625 L 34.371094 189.179688 C 35.808594 190.816406 38.058594 190.613281 39.699219 191.636719 L 43.183594 195.117188 L 43.59375 195.117188 C 43.894531 195.859375 44.328125 196.519531 44.898438 197.085938 C 45.46875 197.65625 46.125 198.089844 46.871094 198.390625 C 47.09375 198.746094 47.386719 199.03125 47.75 199.25 C 48.109375 199.464844 48.5 199.589844 48.917969 199.621094 C 48.917969 200.644531 50.148438 200.847656 51.171875 201.054688 C 51.609375 201.546875 52.15625 201.820312 52.8125 201.871094 L 53.222656 201.871094 C 53.617188 202.285156 54.085938 202.582031 54.632812 202.761719 C 55.175781 202.945312 55.730469 202.988281 56.292969 202.894531 L 58.136719 204.535156 L 63.054688 206.375 L 63.054688 206.785156 C 64.078125 209.039062 66.539062 208.21875 68.175781 208.832031 L 70.429688 209.652344 L 71.25 209.652344 C 73.707031 210.265625 76.167969 211.496094 78.828125 210.675781 C 78.75 210.949219 78.75 211.222656 78.828125 211.496094 C 81.082031 212.929688 83.746094 211.496094 86.203125 212.3125 C 87.34375 212.738281 88.507812 212.804688 89.6875 212.519531 L 89.894531 212.519531 L 91.53125 212.929688 L 92.144531 212.929688 L 93.988281 213.335938 L 94.605469 213.335938 C 94.945312 213.140625 95.289062 213.140625 95.628906 213.335938 C 96.625 213.710938 97.652344 213.984375 98.703125 214.15625 L 99.929688 214.15625 C 100.410156 213.878906 100.886719 213.878906 101.367188 214.15625 L 109.355469 214.15625 C 110.460938 214.265625 111.550781 214.199219 112.632812 213.953125 L 114.683594 213.953125 L 115.707031 213.542969 L 122.46875 213.542969 L 123.695312 213.132812 L 124.722656 212.519531 L 129.226562 212.519531 L 129.226562 213.746094 L 126.566406 213.746094 L 124.105469 214.15625 C 123.285156 214.359375 122.671875 214.15625 122.058594 214.359375 C 121.402344 214.644531 120.722656 214.78125 120.007812 214.769531 L 117.34375 215.386719 L 116.527344 215.386719 C 115.484375 215.199219 114.460938 215.265625 113.453125 215.589844 L 109.765625 215.589844 C 109.152344 215.863281 108.535156 215.863281 107.921875 215.589844 L 98.703125 215.589844 C 98.300781 215.511719 97.898438 215.527344 97.503906 215.636719 C 97.109375 215.746094 96.757812 215.933594 96.449219 216.203125 L 95.832031 216.203125 L 95.21875 215.792969 L 95.21875 215.179688 L 92.761719 215.179688 C 91.90625 214.828125 91.019531 214.625 90.097656 214.566406 L 84.976562 214.566406 L 83.542969 214.15625 L 82.515625 213.746094 L 78.214844 212.929688 L 77.191406 212.929688 L 76.167969 212.519531 L 71.863281 211.085938 L 68.996094 210.265625 L 64.488281 210.265625 C 64.285156 210.265625 64.285156 210.472656 64.285156 210.675781 L 64.695312 210.675781 C 67.355469 211.699219 70.019531 212.519531 72.683594 213.746094 L 73.296875 213.746094 L 75.140625 214.15625 L 78.011719 214.976562 L 80.671875 214.976562 L 81.902344 215.386719 L 83.335938 216 L 86.820312 216.613281 L 91.328125 217.433594 L 92.964844 217.433594 L 94.605469 217.839844 L 100.957031 217.839844 L 103.003906 218.25 L 107.714844 218.25 L 109.765625 217.839844 L 114.273438 217.839844 C 115.09375 217.839844 115.5 217.636719 115.707031 217.226562 L 117.753906 217.226562 C 118.398438 217.28125 118.945312 217.074219 119.394531 216.613281 C 119.1875 216.816406 119.394531 216.816406 119.597656 217.023438 L 120.417969 217.023438 L 120.417969 216.613281 C 120.417969 216.410156 120.417969 216.410156 120.828125 216.203125 C 121.238281 216 122.058594 216 122.261719 216.410156 L 123.082031 216.410156 L 123.695312 216 C 124.105469 216 124.105469 216 124.105469 216.203125 L 125.539062 216.203125 L 126.566406 215.792969 L 128.203125 214.976562 C 128.410156 215.589844 129.023438 215.792969 130.867188 215.386719 L 133.53125 214.566406 L 135.988281 214.566406 C 137.832031 214.359375 140.085938 214.566406 141.519531 213.132812 L 141.929688 213.132812 L 142.75 212.519531 L 145.003906 211.90625 C 146.464844 211.601562 147.832031 211.058594 149.101562 210.265625 L 149.917969 209.855469 L 150.125 209.855469 L 151.96875 208.628906 L 152.789062 208.21875 L 153.8125 207.808594 L 154.632812 207.808594 C 155.453125 207.605469 155.453125 207.605469 155.65625 206.992188 C 155.859375 206.375 155.65625 206.785156 155.246094 206.785156 L 155.042969 206.785156 L 155.859375 205.761719 L 156.269531 205.761719 C 156.886719 205.558594 157.296875 205.351562 157.703125 205.558594 L 158.113281 205.558594 C 158.5625 205.433594 158.949219 205.207031 159.277344 204.878906 C 159.605469 204.550781 159.832031 204.160156 159.957031 203.714844 C 160.574219 202.894531 162.210938 203.304688 162.621094 202.078125 L 171.429688 195.730469 C 173.683594 195.523438 174.300781 193.476562 175.9375 192.25 C 177.578125 191.019531 180.652344 189.996094 182.085938 187.746094 L 183.929688 186.925781 L 184.132812 186.925781 C 184.390625 186.988281 184.652344 187 184.914062 186.964844 C 185.175781 186.925781 185.421875 186.839844 185.652344 186.707031 C 185.882812 186.570312 186.078125 186.402344 186.238281 186.191406 C 186.402344 185.980469 186.519531 185.75 186.589844 185.492188 L 186.589844 186.3125 C 188.230469 185.492188 190.28125 186.925781 191.917969 185.289062 C 193.558594 183.652344 191.917969 179.761719 193.96875 177.507812 L 195.402344 176.484375 C 196.964844 173.808594 197.988281 170.945312 198.472656 167.886719 L 198.882812 167.476562 C 198.882812 166.863281 198.882812 166.042969 199.703125 165.632812 C 199.886719 165.492188 200.035156 165.320312 200.152344 165.125 C 200.269531 164.925781 200.347656 164.710938 200.386719 164.484375 C 200.425781 164.257812 200.417969 164.03125 200.371094 163.804688 C 200.324219 163.578125 200.238281 163.371094 200.113281 163.175781 L 199.703125 163.175781 C 199.820312 162.972656 199.820312 162.765625 199.703125 162.5625 C 201.136719 162.5625 201.34375 161.128906 202.160156 160.515625 L 202.160156 157.648438 C 202.132812 157.511719 202.132812 157.375 202.160156 157.238281 C 202.273438 156.769531 202.34375 156.289062 202.367188 155.804688 Z M 11.632812 65.925781 Z M 11.632812 65.925781 " fill-opacity="1" fill-rule="nonzero"/></g><g clip-path="url(#2519f6ea76)"><path fill="#8c52ff" d="M 53.628906 19.039062 L 53.015625 19.449219 L 52.195312 20.0625 L 53.222656 19.65625 Z M 66.128906 14.945312 L 66.332031 14.945312 L 66.945312 14.535156 L 66.128906 14.535156 Z M 60.800781 16.992188 L 60.597656 17.199219 L 60.800781 17.199219 Z M 57.726562 19.859375 Z M 60.390625 19.449219 Z M 47.484375 25.796875 Z M 18.394531 53.640625 L 17.574219 54.460938 L 17.984375 54.460938 C 18.304688 54.28125 18.441406 54.007812 18.394531 53.640625 Z M 24.539062 46.476562 C 24.808594 46.097656 25.015625 45.691406 25.152344 45.246094 C 24.730469 45.503906 24.386719 45.847656 24.128906 46.269531 C 23.925781 46.476562 23.925781 46.679688 24.128906 46.679688 Z M 22.082031 49.546875 L 22.082031 49.136719 C 21.671875 49.136719 21.054688 49.75 20.441406 49.75 L 20.441406 50.160156 C 21.054688 50.773438 21.261719 50.570312 22.082031 49.546875 Z M 28.226562 185.082031 Z M 150.945312 18.835938 L 151.148438 18.835938 L 150.125 18.222656 Z M 145.824219 15.96875 C 146.847656 15.765625 147.460938 16.789062 148.28125 16.992188 L 148.484375 16.992188 L 147.871094 16.582031 L 145.824219 15.558594 L 143.570312 14.535156 L 144.183594 14.945312 Z M 107.714844 6.347656 Z M 131.6875 10.441406 L 131.480469 10.441406 L 129.023438 10.03125 L 130.046875 10.03125 Z M 135.785156 11.875 L 138.445312 12.695312 C 137.617188 12.234375 136.730469 11.960938 135.785156 11.875 Z M 117.34375 11.875 C 117.578125 11.570312 117.714844 11.230469 117.753906 10.851562 L 116.730469 10.851562 L 116.117188 11.464844 L 116.9375 12.078125 Z M 135.785156 15.152344 Z M 101.773438 8.597656 Z M 107.714844 10.03125 Z M 98.90625 8.191406 Z M 127.179688 12.488281 C 127.171875 12.558594 127.171875 12.625 127.179688 12.695312 Z M 218.960938 119.566406 L 218.347656 119.566406 L 218.347656 118.75 L 218.960938 118.75 C 219.167969 118.75 219.371094 118.132812 219.167969 117.929688 C 218.960938 117.726562 218.960938 116.496094 218.550781 116.292969 C 218.421875 116.246094 218.320312 116.167969 218.242188 116.054688 C 218.167969 115.9375 218.132812 115.8125 218.140625 115.675781 L 218.550781 114.859375 C 218.585938 114.722656 218.585938 114.585938 218.550781 114.449219 L 218.140625 114.449219 L 217.730469 113.835938 C 217.527344 114.449219 217.324219 115.0625 216.914062 115.269531 C 216.882812 115.402344 216.882812 115.539062 216.914062 115.675781 C 216.914062 115.882812 216.914062 116.085938 216.707031 116.085938 L 216.503906 116.085938 C 216.464844 116.300781 216.394531 116.507812 216.296875 116.699219 C 215.890625 117.253906 215.617188 117.871094 215.476562 118.542969 C 215.382812 118.859375 215.449219 119.128906 215.683594 119.363281 L 215.886719 119.363281 C 215.6875 119.890625 215.617188 120.4375 215.683594 121 L 215.683594 121.820312 C 215.664062 122.171875 215.59375 122.511719 215.476562 122.84375 L 215.273438 122.84375 L 214.453125 124.277344 L 214.453125 125.503906 C 214.558594 126.339844 214.351562 127.089844 213.839844 127.757812 L 213.429688 127.757812 L 213.019531 127.347656 C 212.679688 126.835938 212.609375 126.289062 212.816406 125.710938 C 213.035156 124.558594 213.105469 123.398438 213.019531 122.230469 C 213.019531 122.023438 212.816406 121.820312 212.816406 121.820312 C 212.679688 122 212.609375 122.207031 212.609375 122.433594 L 212.609375 123.660156 C 212.609375 124.070312 212.40625 124.890625 211.996094 125.09375 C 211.585938 125.300781 211.789062 125.503906 211.789062 125.710938 L 211.382812 126.9375 L 211.996094 127.960938 C 211.585938 128.371094 211.175781 128.167969 210.972656 127.757812 L 210.972656 129.804688 L 211.585938 129.804688 L 211.585938 130.625 C 211.214844 131.542969 211.011719 132.5 210.972656 133.488281 C 210.953125 133.761719 210.953125 134.035156 210.972656 134.308594 C 210.984375 135.21875 210.847656 136.105469 210.5625 136.96875 C 210.5 137.378906 210.5 137.789062 210.5625 138.199219 L 209.945312 139.632812 C 209.800781 140.132812 209.59375 140.613281 209.332031 141.066406 L 208.71875 142.292969 L 206.875 147.820312 C 207.488281 149.664062 206.054688 150.890625 205.234375 152.121094 C 205.351562 152.992188 205.265625 153.839844 204.976562 154.671875 C 204.6875 155.5 204.226562 156.21875 203.597656 156.828125 L 203.597656 157.648438 C 203.597656 157.851562 203.800781 158.058594 204.210938 157.851562 L 205.03125 157.238281 L 205.441406 156.421875 L 205.847656 156.421875 C 206.054688 156.625 206.257812 156.625 206.667969 156.214844 L 207.078125 156.214844 C 207.246094 156.375 207.351562 156.566406 207.390625 156.796875 C 207.425781 157.023438 207.390625 157.238281 207.285156 157.445312 C 207.136719 157.980469 207.070312 158.527344 207.078125 159.082031 C 207.078125 159.285156 207.078125 159.492188 207.285156 159.492188 L 207.691406 159.492188 C 207.898438 159.695312 208.101562 159.492188 208.308594 158.878906 L 208.71875 157.851562 L 209.332031 157.851562 C 210.152344 157.648438 210.152344 157.648438 210.5625 156.625 L 211.585938 154.78125 L 212.199219 153.554688 L 213.019531 151.507812 C 212.988281 150.753906 213.195312 150.070312 213.632812 149.460938 C 213.945312 149.089844 214.011719 148.679688 213.839844 148.230469 C 213.839844 147.820312 213.839844 147.617188 214.25 147.003906 L 214.863281 146.183594 L 215.886719 144.136719 C 215.964844 143.507812 216.101562 142.894531 216.296875 142.292969 C 216.707031 141.453125 216.910156 140.566406 216.914062 139.632812 C 217.039062 138.992188 217.246094 138.378906 217.527344 137.789062 L 217.527344 136.765625 C 217.324219 136.355469 217.324219 136.355469 217.527344 135.535156 C 217.730469 134.71875 217.730469 135.128906 217.9375 135.128906 C 218.09375 135.304688 218.160156 135.507812 218.140625 135.742188 L 218.550781 134.71875 C 218.8125 134.132812 218.949219 133.515625 218.960938 132.875 L 218.960938 132.261719 C 218.960938 132.054688 218.960938 131.648438 218.757812 131.648438 L 218.757812 132.464844 C 218.347656 132.464844 218.140625 132.875 217.730469 133.078125 C 217.835938 132.539062 217.902344 131.992188 217.9375 131.441406 L 218.757812 131.03125 C 219.101562 130.691406 219.238281 130.28125 219.167969 129.804688 C 219.144531 129.597656 219.144531 129.394531 219.167969 129.191406 C 219.445312 128.253906 219.582031 127.300781 219.574219 126.324219 L 219.574219 125.914062 L 220.191406 123.867188 L 220.394531 123.867188 C 220.589844 123.703125 220.660156 123.5 220.601562 123.253906 L 220.394531 123.253906 C 220.25 122.636719 220.386719 122.089844 220.804688 121.613281 C 220.675781 121.148438 220.449219 120.734375 220.125 120.371094 C 219.800781 120.011719 219.414062 119.742188 218.960938 119.566406 Z M 216.503906 135.535156 Z M 216.09375 115.269531 Z M 216.09375 115.269531 Z M 18.1875 63.058594 C 18.234375 62.921875 18.234375 62.785156 18.1875 62.648438 L 17.777344 62.242188 L 17.367188 62.648438 L 16.753906 63.878906 C 16.753906 64.492188 16.140625 65.105469 16.140625 65.722656 L 16.140625 66.128906 L 16.34375 66.128906 Z M 215.476562 113.835938 L 215.683594 113.835938 C 216.132812 113.066406 216.269531 112.25 216.09375 111.378906 C 216.054688 111.183594 216.074219 110.992188 216.148438 110.804688 C 216.222656 110.621094 216.339844 110.46875 216.503906 110.355469 L 216.707031 110.355469 L 216.707031 109.945312 L 216.296875 109.535156 L 216.09375 109.535156 C 215.886719 109.738281 215.683594 110.148438 215.476562 110.148438 C 215.273438 110.148438 215.273438 110.355469 215.273438 110.761719 L 215.273438 111.378906 C 215.109375 112.214844 215.175781 113.035156 215.476562 113.835938 Z M 26.585938 184.46875 C 26.382812 184.46875 26.585938 184.878906 26.585938 185.082031 L 28.226562 186.722656 L 28.429688 186.722656 C 28.023438 186.105469 27.816406 185.492188 28.023438 185.289062 C 27.636719 185.257812 27.296875 185.121094 26.996094 184.878906 Z M 28.226562 185.082031 Z M 217.324219 111.992188 L 217.527344 111.992188 C 217.589844 111.582031 217.589844 111.171875 217.527344 110.761719 C 216.914062 110.96875 216.914062 110.96875 216.914062 111.992188 C 216.914062 113.015625 217.117188 112.195312 217.324219 111.992188 Z M 217.324219 111.992188 " fill-opacity="1" fill-rule="nonzero"/></g><path fill="#8c52ff" d="M 218.140625 126.9375 C 218.371094 126.628906 218.4375 126.289062 218.347656 125.914062 C 218.347656 125.710938 218.140625 125.503906 218.140625 125.710938 L 217.730469 125.710938 L 217.730469 126.117188 C 217.730469 126.9375 217.9375 127.144531 218.140625 126.9375 Z M 218.347656 110.148438 L 218.140625 110.148438 L 218.140625 111.378906 C 218.339844 110.988281 218.410156 110.582031 218.347656 110.148438 Z M 34.578125 189.585938 L 34.167969 189.585938 L 34.167969 189.996094 L 34.578125 190.40625 L 34.988281 190.40625 L 34.988281 189.996094 Z M 211.996094 121.410156 C 211.996094 121.207031 211.996094 121.207031 211.789062 121.207031 Z M 19.828125 177.097656 L 20.851562 178.121094 L 20.03125 176.894531 Z M 19.828125 177.097656 " fill-opacity="1" fill-rule="nonzero"/><path fill="#8c52ff" d="M 19.417969 61.625 L 19.210938 61.625 L 19.210938 62.035156 L 19.210938 61.625 Z M 189.871094 48.113281 L 189.460938 47.5 L 189.253906 47.5 Z M 159.753906 205.96875 Z M 11.632812 65.925781 Z M 11.425781 66.335938 C 11.550781 66.226562 11.617188 66.089844 11.632812 65.925781 L 11.632812 66.335938 Z M 15.320312 56.304688 Z M 125.539062 4.914062 Z M 213.226562 124.070312 L 213.226562 124.277344 Z M 33.144531 189.382812 L 32.9375 189.382812 C 33.144531 189.585938 33.347656 189.382812 33.144531 189.179688 Z M 33.554688 190.816406 L 33.757812 190.816406 L 33.554688 190.613281 Z M 184.953125 44.835938 Z M 216.09375 115.269531 Z M 29.457031 187.746094 Z M 218.140625 111.992188 Z M 216.503906 135.332031 Z M 70.429688 0 Z M 70.429688 0 " fill-opacity="1" fill-rule="nonzero"/><path fill="#8c52ff" d="M 103.777344 66.789062 L 102.253906 86.980469 C 101.871094 95.554688 114.644531 96.316406 115.214844 87.933594 L 116.359375 67.550781 C 116.929688 59.167969 104.160156 58.214844 103.777344 66.789062 Z M 60.316406 40.691406 C 60.507812 40.691406 157.914062 39.167969 158.292969 39.738281 C 164.394531 45.070312 162.871094 172.132812 158.867188 175.75 C 156.960938 177.277344 136.753906 178.417969 115.023438 178.609375 C 111.019531 160.320312 114.070312 138.984375 114.070312 138.984375 C 115.214844 130.414062 102.445312 128.890625 101.492188 137.082031 C 101.492188 137.273438 98.441406 158.605469 102.253906 178.800781 C 80.523438 178.609375 60.890625 177.65625 59.746094 175.75 C 55.933594 168.894531 59.746094 41.070312 60.316406 40.691406 Z M 60.316406 40.691406 " fill-opacity="1" fill-rule="nonzero"/><g fill="#ffffff" fill-opacity="1"><g transform="translate(46.339497, 179.98231)"><g><path d="M 63.988281 21.609375 L 79.0625 21.609375 L 117.253906 -106.367188 C 117.925781 -108.710938 119.769531 -110.054688 122.28125 -110.054688 L 131.160156 -110.054688 L 131.160156 -121.777344 L 118.597656 -137.859375 L 118.597656 -125.964844 L 109.71875 -125.964844 C 107.207031 -125.964844 105.53125 -124.625 104.691406 -122.28125 L 66.5 4.859375 L 50.585938 4.859375 Z M 73.367188 -69.011719 C 74.207031 -72.195312 75.378906 -76.382812 76.886719 -81.578125 L 68.007812 -107.371094 C 67.503906 -108.546875 68.175781 -109.214844 69.347656 -109.214844 L 79.398438 -109.214844 L 79.398438 -121.109375 L 66 -137.859375 L 66 -125.964844 L 55.949219 -125.964844 C 54.941406 -125.964844 54.441406 -125.632812 54.441406 -124.960938 C 54.441406 -124.625 54.441406 -124.457031 54.609375 -124.125 Z M 52.261719 1.339844 L 63.820312 1.339844 L 101.34375 -123.285156 C 102.515625 -127.140625 105.699219 -129.484375 109.71875 -129.484375 L 115.078125 -129.484375 L 115.078125 -136.519531 L 80.738281 -136.519531 L 80.738281 -129.484375 L 87.773438 -129.484375 C 90.789062 -129.484375 92.96875 -127.472656 92.96875 -124.960938 C 92.96875 -124.457031 92.800781 -123.957031 92.632812 -123.453125 L 73.367188 -57.289062 L 51.089844 -122.949219 C 50.921875 -123.621094 50.753906 -124.292969 50.753906 -124.792969 C 50.753906 -127.472656 52.765625 -129.484375 55.78125 -129.484375 L 62.3125 -129.484375 L 62.3125 -136.519531 L -4.859375 -136.519531 L -4.859375 -129.484375 L 0.835938 -129.484375 C 4.523438 -129.484375 7.707031 -127.304688 8.878906 -123.789062 Z M 97.824219 -126.132812 C 97.65625 -127.472656 97.324219 -128.480469 96.316406 -129.652344 L 100.671875 -129.652344 C 99.667969 -128.644531 98.664062 -127.140625 97.824219 -126.132812 Z M 16.25 -125.128906 L 15.914062 -126.132812 C 15.578125 -127.304688 14.910156 -128.480469 14.238281 -129.484375 L 45.058594 -129.484375 C 44.558594 -128.144531 44.222656 -126.636719 44.054688 -125.128906 Z M 7.035156 -109.382812 L 10.386719 -109.382812 L 5.695312 -122.785156 C 5.023438 -124.792969 3.351562 -125.964844 1.003906 -125.964844 L -6.367188 -125.964844 Z M 87.105469 -116.753906 C 88.445312 -121.445312 89.28125 -124.792969 89.28125 -124.960938 C 89.28125 -125.632812 88.945312 -125.964844 87.773438 -125.964844 L 79.230469 -125.964844 Z M 19.097656 -116.753906 L 17.589844 -121.109375 L 44.558594 -121.109375 L 46.066406 -116.753906 Z M 22.109375 -108.210938 L 20.601562 -112.566406 L 47.574219 -112.566406 L 48.914062 -108.210938 Z M 24.957031 -99.667969 L 23.449219 -104.023438 L 50.253906 -104.023438 L 51.761719 -99.667969 Z M 27.972656 -91.292969 L 26.464844 -95.648438 L 53.269531 -95.648438 L 54.773438 -91.292969 Z M 30.820312 -82.75 L 29.3125 -87.105469 L 55.949219 -87.105469 L 57.457031 -82.75 Z M 33.835938 -74.375 L 32.328125 -78.730469 L 58.964844 -78.730469 L 60.46875 -74.375 Z M 36.683594 -65.832031 L 35.175781 -70.1875 L 61.644531 -70.1875 L 63.152344 -65.832031 Z M 39.699219 -57.457031 L 38.191406 -61.808594 L 64.65625 -61.808594 L 66.164062 -57.457031 Z M 42.546875 -48.914062 L 41.039062 -53.269531 L 67.339844 -53.269531 L 68.847656 -48.914062 Z M 45.5625 -40.371094 L 44.054688 -44.726562 L 69.851562 -44.726562 L 69.683594 -44.390625 L 70.351562 -44.726562 L 69.179688 -40.371094 Z M 48.410156 -31.992188 L 46.902344 -36.347656 L 67.839844 -36.347656 L 66.667969 -31.992188 Z M 51.59375 -23.449219 L 49.917969 -27.804688 L 65.496094 -27.804688 L 64.15625 -23.449219 Z M 54.441406 -15.074219 L 52.933594 -19.429688 L 62.984375 -19.429688 L 61.808594 -15.074219 Z M 57.621094 -5.695312 L 55.78125 -10.886719 L 60.46875 -10.886719 L 58.964844 -5.695312 Z M 57.621094 -5.695312 "/></g></g></g></svg>